<svg version="1.1"
	 xmlns="http://www.w3.org/2000/svg" xmlns:xlink="http://www.w3.org/1999/xlink" xmlns:a="http://ns.adobe.com/AdobeSVGViewerExtensions/3.0/"
	 x="0px" y="0px" width="63px" height="63px" viewBox="0 0 63 63" style="enable-background:new 0 0 63 63;" xml:space="preserve">
<style type="text/css">
	.st0{fill:none;stroke:#1DB954;stroke-width:0.9642;stroke-miterlimit:10;}
	.st1{fill:none;stroke:#1DB954;stroke-width:1.0546;stroke-miterlimit:10;}
	.st2{fill:#1DB954;}
</style>
<defs>
</defs>
<g>
	<ellipse transform="matrix(0.7071 -0.7071 0.7071 0.7071 -7.8449 18.9394)" class="st0" cx="18.9" cy="18.9" rx="16.8" ry="16.8"/>
	<ellipse transform="matrix(0.7071 -0.7071 0.7071 0.7071 -7.8449 18.9394)" class="st1" cx="18.9" cy="18.9" rx="18.4" ry="18.4"/>
	<path class="st2" d="M58.8,62.3L33.6,37.2c-1-1-1-2.6,0-3.5s2.6-1,3.5,0c0,0,25.1,25.1,25.1,25.1c1,1,1,2.6,0,3.5
		C61.3,63.3,59.7,63.3,58.8,62.3z"/>
	<rect x="33" y="30.9" transform="matrix(0.7071 -0.7071 0.7071 0.7071 -14.2583 34.4226)" class="st2" width="2.8" height="7"/>
</g>
</svg>
